<svg width="36" height="36" viewBox="0 0 36 36" fill="none" xmlns="http://www.w3.org/2000/svg">
<path d="M17.9998 4.1C23.686 4.1 28.2995 8.71354 28.2996 14.3998V29.599C28.2994 29.874 28.0736 30.1 27.7986 30.1C27.7178 30.1 27.6346 30.0789 27.5574 30.0365L27.4822 29.9867L26.8572 29.4848L26.8562 29.4838L26.6707 29.35C25.7218 28.734 24.4487 28.8949 23.6873 29.7641L23.6863 29.765L21.9714 31.7338L21.9705 31.7348C21.882 31.8365 21.7455 31.8997 21.6003 31.8998C21.4593 31.8998 21.3232 31.8393 21.2244 31.7289L19.7322 30.018C18.8176 28.9675 17.1865 28.9698 16.2683 30.017L16.2673 30.018L14.7712 31.7338L14.7703 31.7348C14.6818 31.8365 14.5454 31.8997 14.4001 31.8998C14.2601 31.8998 14.1257 31.8398 14.0271 31.7309L12.3132 29.765L12.3123 29.7641C11.5 28.8369 10.1053 28.7156 9.14331 29.4838L9.14233 29.4848L8.51733 29.9867C8.42079 30.062 8.30865 30.1 8.20093 30.1C7.92603 30.0998 7.7001 29.8739 7.69995 29.599V14.3998C7.70006 8.7136 12.3136 4.1001 17.9998 4.1ZM14.4001 12.1C13.1284 12.1 12.1004 13.1281 12.1003 14.3998C12.1003 15.6716 13.1284 16.6996 14.4001 16.6996C15.6718 16.6995 16.7 15.6715 16.7 14.3998C16.6998 13.1282 15.6718 12.1001 14.4001 12.1ZM21.6003 12.1C20.3286 12.1 19.2997 13.1281 19.2996 14.3998C19.2996 15.6716 20.3286 16.6996 21.6003 16.6996C22.8719 16.6994 23.9001 15.6714 23.9001 14.3998C23.9 13.1283 22.8719 12.1002 21.6003 12.1Z" fill="white" stroke="black"/>
</svg>
