<svg width="28" height="28" viewBox="0 0 28 28" fill="none" xmlns="http://www.w3.org/2000/svg">
<g clip-path="url(#clip0_28_6)">
<path d="M7.44927 2.703L13.2679 13.4848L1.02127 13.8366C1.09806 16.502 2.04242 19.0695 3.71097 21.1493C5.37952 23.2292 7.68113 24.7079 10.2664 25.3608C12.8517 26.0138 15.5794 25.8054 18.0354 24.7673C20.4915 23.7292 22.5418 21.918 23.875 19.6088C25.2082 17.2996 25.7516 14.6184 25.4226 11.9724C25.0936 9.32629 23.9102 6.85982 22.0521 4.9474C20.194 3.03498 17.7626 1.78105 15.1271 1.37599C12.4916 0.97092 9.79592 1.43683 7.44927 2.703Z" stroke="black" stroke-linecap="round" stroke-linejoin="round"/>
<path d="M18.866 9.78866C18.7334 10.0183 18.5149 10.1859 18.2588 10.2546C18.0026 10.3232 17.7296 10.2873 17.4999 10.1547C17.2703 10.0221 17.1027 9.80366 17.034 9.54748C16.9654 9.2913 17.0013 9.01835 17.1339 8.78866C17.2665 8.55898 17.4849 8.39138 17.7411 8.32274C17.9973 8.25409 18.2703 8.29003 18.4999 8.42264C18.7296 8.55525 18.8972 8.77366 18.9659 9.02984C19.0345 9.28602 18.9986 9.55898 18.866 9.78866Z" stroke="black" stroke-linecap="round" stroke-linejoin="round"/>
</g>
<defs>
<clipPath id="clip0_28_6">
<rect width="28" height="28" fill="white"/>
</clipPath>
</defs>
</svg>
